<svg xmlns="http://www.w3.org/2000/svg" width="86" height="86" viewBox="0 0 86 86" fill="none">
  <path d="M63.5054 14.6535C65.1447 13.8607 66.2802 12.1877 66.2802 10.246C66.2802 8.94875 65.7649 7.70464 64.8476 6.78735C63.9303 5.87006 62.6862 5.35474 61.389 5.35474C60.0917 5.35474 58.8476 5.87006 57.9303 6.78735C57.013 7.70464 56.4977 8.94875 56.4977 10.246C56.4977 12.2146 57.66 13.901 59.333 14.6804C57.398 25.1616 54.4283 32.9621 43.376 34.6283C43.376 34.6283 46.3524 49.5104 60.2736 49.5104C74.1949 49.5104 75.6058 34.7761 75.6058 34.7761C64.3116 35.354 63.3575 21.1572 63.5054 14.6535Z" fill="#F19534"/>
  <path d="M23.3408 14.6535C21.7014 13.8607 20.566 12.1877 20.566 10.246C20.566 8.94875 21.0813 7.70464 21.9986 6.78735C22.9159 5.87006 24.16 5.35474 25.4572 5.35474C26.7545 5.35474 27.9986 5.87006 28.9159 6.78735C29.8332 7.70464 30.3485 8.94875 30.3485 10.246C30.3485 12.2146 29.1861 13.901 27.5132 14.6804C29.4482 25.1616 32.4179 32.9621 43.4702 34.6283C43.4702 34.6283 40.4938 49.5104 26.5725 49.5104C12.6513 49.5104 11.2471 34.7829 11.2471 34.7829C22.5346 35.354 23.4886 21.1572 23.3408 14.6535Z" fill="#F19534"/>
  <path d="M60.0859 49.5104C60.1464 49.5104 60.2069 49.5171 60.2673 49.5171C64.1037 49.5171 66.9861 48.3951 69.1495 46.7759L60.0859 49.5104Z" fill="#FFCA28"/>
  <path d="M80.1142 11.3279C77.8769 11.0256 75.7403 13.1554 75.3506 16.0713C75.1088 17.8921 75.5992 19.592 76.5466 20.6871L74.9341 27.3723C74.9341 27.3723 72.4683 43.1681 60.0117 46.2856C50.0545 48.7782 46.4466 30.5503 45.5731 24.9199C47.4678 23.9793 48.778 22.0309 48.778 19.7667C48.778 16.5887 46.2047 14.0154 43.0267 14.0154C39.8488 14.0154 37.2755 16.5887 37.2755 19.7667C37.2755 22.0443 38.6058 24.0129 40.5341 24.9401C39.842 30.4965 36.7917 48.1198 26.0417 46.2788C15.1305 44.4043 10.3669 26.0285 9.26501 21.0298C10.5752 19.9548 11.3075 18.0601 11.0388 16.0243C10.6491 13.1017 8.33783 11.0054 5.87876 11.3346C3.4197 11.6639 1.74673 14.2976 2.13642 17.2135C2.41861 19.3367 3.72205 21.0231 5.3547 21.6614L13.901 74.7596C13.901 74.7596 21.3588 80.652 43.0267 80.652C64.6947 80.652 72.1525 74.7596 72.1525 74.7596L80.7189 21.5203C82.103 20.7946 83.1914 19.162 83.4602 17.1598C83.8566 14.2371 82.3583 11.6303 80.1142 11.3279Z" fill="#FFCA28"/>
  <path d="M43.2955 67.1271C46.9097 67.1271 49.8396 63.6347 49.8396 59.3266C49.8396 55.0185 46.9097 51.5261 43.2955 51.5261C39.6813 51.5261 36.7515 55.0185 36.7515 59.3266C36.7515 63.6347 39.6813 67.1271 43.2955 67.1271Z" fill="#1B3A4B"/>
  <path d="M43.2956 53.4544C43.5509 53.7366 43.7794 54.254 43.2956 55.2618C42.8119 56.2696 40.205 57.6335 39.728 57.909C39.2509 58.1911 38.9351 58.0635 38.7873 57.9493C38.0819 57.3849 38.3506 56.1083 38.8075 55.329C39.7884 53.6425 41.8645 51.9024 43.2956 53.4544Z" fill="#006466"/>
  <path d="M42.8118 62.2358C42.0727 62.5919 39.6472 63.6736 40.4468 64.9569C40.9171 65.7161 41.8913 66.0386 42.7849 66.0789C43.6785 66.1192 44.5586 65.837 45.3515 65.4272C49.114 63.4787 49.4163 58.3591 48.684 57.9694C47.9315 57.5663 47.4208 58.6077 47.0311 59.0511C45.8462 60.3781 44.4128 61.4601 42.8118 62.2358Z" fill="#144552"/>
  <path d="M79.3419 52.9437C80.39 47.1454 76.4932 45.6942 76.4932 45.6942C76.4932 45.6942 73.9804 45.2373 72.7979 51.7612C71.6154 58.2784 74.1282 58.7352 74.1282 58.7352C74.1282 58.7352 78.2871 58.742 79.3419 52.9437Z" fill="#1B3A4B"/>
  <path d="M77.6082 47.6763C78.522 48.8991 77.4402 50.7064 75.6867 51.9091C75.1693 52.2652 74.484 52.1308 74.3832 51.8352C74.101 50.9886 74.222 50.0278 74.5982 49.2149C75.7135 46.7759 77.1446 47.0581 77.6082 47.6763Z" fill="#006466"/>
  <path d="M6.55733 53.1185C5.50248 47.3269 9.40608 45.869 9.40608 45.869C9.40608 45.869 11.9189 45.4121 13.1014 51.936C14.2839 58.4532 11.7711 58.9101 11.7711 58.9101C11.7711 58.9101 7.60545 58.9168 6.55733 53.1185Z" fill="#1B3A4B"/>
  <path d="M10.6024 47.8374C11.5027 48.5093 11.1332 49.3894 10.4546 50.0008C9.68191 50.7063 9.09066 51.4789 8.43222 52.2785C8.33144 52.3994 8.21722 52.5338 8.05597 52.5674C7.74691 52.6346 7.49832 52.3188 7.39753 52.0164C7.10863 51.1699 7.16238 50.1755 7.59238 49.3961C8.81519 47.1722 10.253 47.5754 10.6024 47.8374Z" fill="#006466"/>
  <path d="M67.1808 58.5606C66.7172 61.2011 64.6008 63.0353 62.4441 62.659C60.2874 62.2828 59.9918 60.032 60.4554 57.3915C60.919 54.7511 61.9604 52.7287 64.1104 53.105C66.2671 53.4812 67.6444 55.9269 67.1808 58.5606Z" fill="#4D194D"/>
  <path d="M20.4449 58.5606C20.9085 61.2011 23.0249 63.0353 25.1817 62.659C27.3384 62.2828 27.634 60.032 27.1704 57.3915C26.7068 54.7511 25.6654 52.7287 23.5154 53.105C21.3654 53.4812 19.9881 55.9269 20.4449 58.5606Z" fill="#4D194D"/>
  <path d="M23.5694 56.8004C23.0789 57.3513 21.883 58.4599 21.4597 57.6133C20.8819 56.4577 21.6814 54.7108 22.5952 54.133C23.5089 53.5552 24.2547 54.0121 24.3824 54.5294C24.5369 55.1879 24.0061 56.3032 23.5694 56.8004Z" fill="#FFA8A4" fill-opacity="0.1"/>
  <path d="M61.7989 58.4867C61.1338 58.386 61.0599 56.0949 62.847 54.2942C63.7003 53.4342 64.9231 54.4555 64.6141 55.8328C64.3185 57.143 63.015 58.6749 61.7989 58.4867Z" fill="#FFA8A4" fill-opacity="0.1"/>
  <path d="M73.3353 65.9849C69.3107 68.0005 60.0792 73.3688 43.0337 73.3688C25.9882 73.3688 16.7567 68.0005 12.7321 65.9849C12.7321 65.9849 11.2876 66.7575 11.2876 67.5638V73.7517C11.2876 74.5781 11.7243 75.3374 12.4365 75.7606C15.5809 77.615 25.1618 81.9956 43.0404 81.9956C60.919 81.9956 70.4999 77.615 73.6443 75.7606C73.9939 75.5545 74.2837 75.2608 74.4852 74.9086C74.6867 74.5563 74.7928 74.1576 74.7932 73.7517V67.5638C74.7798 66.7575 73.3353 65.9849 73.3353 65.9849Z" fill="#FFCA28"/>
  <path d="M26.6062 74.4707C28.4874 74.8402 29.0585 75.0015 28.9309 76.0496C28.6688 78.1122 24.389 77.6218 21.856 76.9566C16.6221 75.5793 15.5605 74.128 15.5605 72.8313C15.5605 71.6421 16.4743 71.501 17.8852 71.9982C19.5716 72.5961 22.1785 73.604 26.6062 74.4707Z" fill="#FFF59D"/>
  <path d="M73.3351 67.342C73.3351 67.342 62.2021 73.6442 43.0335 73.6442C23.8649 73.6442 12.7319 67.342 12.7319 67.342" stroke="#F19534" stroke-width="2.95679" stroke-miterlimit="10" stroke-linecap="round"/>
  <path d="M18.1205 33.3048C21.6949 30.7517 23.6164 26.1762 23.7844 18.8931C23.7978 18.2346 23.986 18.0398 24.3421 17.9995C24.9132 17.939 25.0072 18.4564 25.0005 18.8259C24.8393 26.6868 23.8382 31.5982 19.8741 34.3664C19.6793 34.5007 18.2885 35.3473 17.6972 34.7628C16.9918 34.0775 17.8921 33.466 18.1205 33.3048Z" fill="#FFCA28"/>
  <path d="M21.3925 10.4409C21.2783 9.22483 21.5605 7.03451 24.7519 6.04014C25.6858 5.75123 26.2636 6.20811 26.3711 6.5642C26.6399 7.45108 25.8605 7.80045 25.5044 7.91467C23.0521 8.70748 22.9311 9.93029 22.4272 10.7097C21.9233 11.489 21.4328 10.8105 21.3925 10.4409Z" fill="#FFCA28"/>
  <path d="M52.5539 31.6924C55.7857 28.8235 57.9289 25.6187 59.3399 18.3221C59.4675 17.6771 59.6557 17.5024 60.005 17.5158C60.5761 17.5293 60.603 18.0601 60.5425 18.4229C59.3466 26.2032 58.2111 28.4204 54.2269 32.8346C53.7768 33.3318 52.6816 33.7819 52.0635 33.2646C51.5058 32.801 52.1508 32.0552 52.5539 31.6924Z" fill="#FFCA28"/>
  <path d="M57.311 10.5015C57.1968 9.28537 57.479 7.09506 60.6704 6.10069C61.6043 5.81178 62.1821 6.26865 62.2896 6.62475C62.5583 7.51162 61.779 7.861 61.4229 7.97522C58.9705 8.76803 58.8496 9.99084 58.3457 10.7702C57.8485 11.5496 57.3513 10.871 57.311 10.5015Z" fill="#FFCA28"/>
  <path d="M21.2243 48.1197C13.4171 44.5789 11.1193 35.3406 9.89648 31.3295C9.73523 30.7988 9.81585 30.2949 10.3466 30.1336C10.8774 29.9724 11.1932 30.315 11.3612 30.8458C12.248 33.755 15.6948 43.4703 22.8099 46.2317C23.3273 46.4333 24.1335 46.9238 23.6968 47.7636C23.4079 48.3078 22.4807 48.6908 21.2243 48.1197Z" fill="#FFF59D"/>
  <path d="M8.51928 16.5483C8.14303 15.7689 7.9885 15.0299 5.93928 14.1766C5.42194 13.9616 5.07928 13.4845 5.22037 12.947C5.36147 12.4095 5.89897 12.0064 6.67834 12.1408C9.21131 12.5775 9.76225 15.1508 9.86975 16.0444C9.97053 16.9044 8.90225 17.3277 8.51928 16.5483Z" fill="#FFF59D"/>
  <path d="M65.0844 48.1197C72.8916 44.5789 75.1894 35.3406 76.4123 31.3295C76.5735 30.7988 76.4929 30.2949 75.9621 30.1336C75.4313 29.9724 75.1155 30.315 74.9476 30.8458C74.0607 33.755 70.614 43.4703 63.4988 46.2317C62.9815 46.4333 62.1752 46.9238 62.6119 47.7636C62.9009 48.3078 63.828 48.6908 65.0844 48.1197Z" fill="#FFF59D"/>
  <path d="M77.7897 16.5483C78.166 15.7689 78.3205 15.0299 80.3697 14.1766C80.8871 13.9616 81.2297 13.4845 81.0886 12.947C80.9475 12.4095 80.41 12.0064 79.6307 12.1408C77.0977 12.5775 76.5468 15.1508 76.4393 16.0444C76.3385 16.9044 77.4135 17.3277 77.7897 16.5483Z" fill="#FFF59D"/>
  <path d="M39.8958 19.8539C40.3056 19.0141 41.0245 17.8652 43.3694 17.3814C44.2697 17.1933 44.5317 16.8036 44.4511 16.2124C44.2899 14.9829 42.758 15.0702 41.9316 15.265C39.1769 15.91 38.5655 18.3557 38.4513 19.3232C38.337 20.2436 39.4927 20.6938 39.8958 19.8539Z" fill="#FFF59D"/>
</svg>